<svg id="Layer_9" data-name="Layer 9" xmlns="http://www.w3.org/2000/svg" viewBox="0 0 798.93 134.31"><defs><style>.cls-1{fill:#fc0;}.cls-2{fill:#fff;}</style></defs><title>Corpnce_Yellow</title><g id="_Group_" data-name="&lt;Group&gt;"><path id="_Compound_Path_" data-name="&lt;Compound Path&gt;" class="cls-1" d="M1366.09,347.62l75.12,81.8V351h10.63V456.48l-75.11-81.93v78.32h-10.64Z" transform="translate(-883.37 -347.62)"/><rect id="_Path_" data-name="&lt;Path&gt;" class="cls-1" x="724.03" y="2.82" width="71.55" height="102.26" rx="9.34" ry="9.34"/><path id="_Compound_Path_2" data-name="&lt;Compound Path&gt;" class="cls-1" d="M936.13,454.44A53.34,53.34,0,0,1,915,450.31a51.19,51.19,0,0,1-16.67-11.25,52.86,52.86,0,0,1-15-37,52.3,52.3,0,0,1,15.24-37,53.79,53.79,0,0,1,16.73-11.32,53.94,53.94,0,0,1,41-.27,55.76,55.76,0,0,1,16.36,10.6l-6.4,7.29a57.41,57.41,0,0,0-13.36-9,38,38,0,0,0-17-3.69,40.56,40.56,0,0,0-17.07,3.55,41.48,41.48,0,0,0-13.26,9.47,43,43,0,0,0-8.59,13.84A45.47,45.47,0,0,0,894,402.08a44.08,44.08,0,0,0,3.13,16.6,43.38,43.38,0,0,0,8.73,13.74,41.07,41.07,0,0,0,30.26,12.88,39.36,39.36,0,0,0,16.94-3.48,57.64,57.64,0,0,0,13.26-8.52l6,7.16A53.93,53.93,0,0,1,956,450.79,52.74,52.74,0,0,1,936.13,454.44Z" transform="translate(-883.37 -347.62)"/><path id="_Compound_Path_3" data-name="&lt;Compound Path&gt;" class="cls-1" d="M1059.69,358.8a38.62,38.62,0,0,0-13,3.41,41.39,41.39,0,0,0-13.29,9.47,43.87,43.87,0,0,0-8.66,13.84,45.34,45.34,0,0,0,0,33.16,43.19,43.19,0,0,0,8.66,13.67,41.3,41.3,0,0,0,13.22,9.34,40.18,40.18,0,0,0,13.09,3.34v9.06a53.66,53.66,0,0,1-16.63-3.81,51.31,51.31,0,0,1-16.74-11,52.5,52.5,0,0,1-11.25-16.57,51.21,51.21,0,0,1-4.12-20.62,50.63,50.63,0,0,1,4.19-20.48,54.12,54.12,0,0,1,11.32-16.7,53.29,53.29,0,0,1,16.73-11.28,51,51,0,0,1,16.5-3.95Zm5.38,86.36a42.4,42.4,0,0,0,15.68-3.34,39.34,39.34,0,0,0,13.22-9.2A41.3,41.3,0,0,0,1102.5,419a46.48,46.48,0,0,0,3-16.74,48.51,48.51,0,0,0-3-17.21,41.76,41.76,0,0,0-8.46-13.8,38.83,38.83,0,0,0-13.15-9.21,43.56,43.56,0,0,0-15.82-3.34v-9.13a54.52,54.52,0,0,1,19.36,4,51.56,51.56,0,0,1,16.67,11.08,51,51,0,0,1,11,16.63,55.71,55.71,0,0,1-.07,41.58A51.73,51.73,0,0,1,1101,439.4a49.49,49.49,0,0,1-16.6,10.94,55.17,55.17,0,0,1-19.29,3.89Z" transform="translate(-883.37 -347.62)"/><path id="_Compound_Path_4" data-name="&lt;Compound Path&gt;" class="cls-2" d="M1056.48,358.8a38.62,38.62,0,0,0-13,3.41,41.39,41.39,0,0,0-13.29,9.47,43.87,43.87,0,0,0-8.66,13.84,45.48,45.48,0,0,0,0,33.16,43.19,43.19,0,0,0,8.66,13.67,41.3,41.3,0,0,0,13.22,9.34,40.25,40.25,0,0,0,13.09,3.34v9.06a53.66,53.66,0,0,1-16.63-3.81,51.31,51.31,0,0,1-16.74-11,52.64,52.64,0,0,1-11.24-16.57,51.21,51.21,0,0,1-4.13-20.62,50.48,50.48,0,0,1,4.2-20.48,53.09,53.09,0,0,1,28-28,51,51,0,0,1,16.5-3.95Zm5.39,86.36a42.35,42.35,0,0,0,15.67-3.34,39.38,39.38,0,0,0,13.23-9.2,41.27,41.27,0,0,0,8.52-13.66,46.27,46.27,0,0,0,3-16.74,48.29,48.29,0,0,0-3-17.21,41.74,41.74,0,0,0-8.45-13.8,39,39,0,0,0-13.16-9.21,43.5,43.5,0,0,0-15.81-3.34v-9.13a54.47,54.47,0,0,1,19.35,4,50.54,50.54,0,0,1,27.71,27.71,55.71,55.71,0,0,1-.07,41.58,51.56,51.56,0,0,1-11.11,16.63,49.55,49.55,0,0,1-16.59,10.94,55.22,55.22,0,0,1-19.29,3.89Z" transform="translate(-883.37 -347.62)"/><path id="_Compound_Path_5" data-name="&lt;Compound Path&gt;" class="cls-1" d="M1162.58,452.87H1152V351h36.33a59.08,59.08,0,0,1,9.51.75,28.75,28.75,0,0,1,8.49,2.73,29.06,29.06,0,0,1,11.82,10.8,30.92,30.92,0,0,1,4.54,16.87,34.87,34.87,0,0,1-2.18,12.61,34.11,34.11,0,0,1-5.59,9.72,26.19,26.19,0,0,1-7.74,6.34,23.19,23.19,0,0,1-8.69,2.69q6.48,9.94,12.75,19.73t12.54,19.67h-12.68q-6.13-9.62-12.24-19.26t-12.23-19.39v-9.07c3.09,0,5.54,0,7.36-.17a26.9,26.9,0,0,0,5.93-1.12,12.56,12.56,0,0,0,4.87-2.87,19.77,19.77,0,0,0,3.82-4.87,25.81,25.81,0,0,0,2.52-6.41,28.91,28.91,0,0,0,.92-7.32,24.44,24.44,0,0,0-2.72-12,19.35,19.35,0,0,0-7.43-7.53,21.59,21.59,0,0,0-6.24-2.14,39,39,0,0,0-7.33-.65h-25.7Z" transform="translate(-883.37 -347.62)"/><path id="_Compound_Path_6" data-name="&lt;Compound Path&gt;" class="cls-1" d="M1259.69,351h32.24a54.93,54.93,0,0,1,9.72.85,30.68,30.68,0,0,1,8.21,2.63,32.09,32.09,0,0,1,11.55,10.6q4.74,7,4.74,17.07a36.44,36.44,0,0,1-1.53,10.81,33.61,33.61,0,0,1-4.13,8.79,29.84,29.84,0,0,1-5.93,6.58,24.23,24.23,0,0,1-7.09,4.09,30.91,30.91,0,0,1-7,1.46q-3.79.38-9.1.38h-21.07v38.65h-10.63Zm31.83,54.19c2.73,0,4.92,0,6.58-.17a20.84,20.84,0,0,0,5.28-1.12,13.38,13.38,0,0,0,4.71-2.76,20.5,20.5,0,0,0,3.85-4.74,25.89,25.89,0,0,0,2.66-6.37,28.83,28.83,0,0,0,1-7.6q0-7.58-2.93-12.38a19.52,19.52,0,0,0-7.29-7.19q-4.9-2.79-13.43-2.79h-21.61v45.12Z" transform="translate(-883.37 -347.62)"/><path id="_Compound_Path_7" data-name="&lt;Compound Path&gt;" class="cls-2" d="M1364,347.62l75.12,81.8V351h10.63V456.48l-75.11-81.93v78.32H1364Z" transform="translate(-883.37 -347.62)"/><path id="_Compound_Path_8" data-name="&lt;Compound Path&gt;" class="cls-1" d="M1540.54,454.44a53.31,53.31,0,0,1-21.13-4.13,51.19,51.19,0,0,1-16.67-11.25,52.86,52.86,0,0,1-15-37,51.52,51.52,0,0,1,4.06-20.34A52.09,52.09,0,0,1,1503,365a54,54,0,0,1,16.74-11.32,53.94,53.94,0,0,1,41-.27,55.76,55.76,0,0,1,16.36,10.6l-6.4,7.29a57.62,57.62,0,0,0-13.36-9,38,38,0,0,0-17-3.69,40.56,40.56,0,0,0-17.07,3.55,41.48,41.48,0,0,0-13.26,9.47,43,43,0,0,0-8.59,13.84,45.48,45.48,0,0,0-3.07,16.56,44.08,44.08,0,0,0,3.14,16.6,43.53,43.53,0,0,0,8.72,13.74,41.38,41.38,0,0,0,13.33,9.4,40.81,40.81,0,0,0,16.94,3.48,39.36,39.36,0,0,0,16.94-3.48,57.64,57.64,0,0,0,13.26-8.52l6,7.16a53.69,53.69,0,0,1-16.36,10.33A52.65,52.65,0,0,1,1540.54,454.44Z" transform="translate(-883.37 -347.62)"/><path id="_Compound_Path_9" data-name="&lt;Compound Path&gt;" class="cls-2" d="M1617,395v10.36a4,4,0,0,0,.73,2.3h51.32a4,4,0,0,0,.73-2.3V395a4,4,0,0,0-.73-2.3h-51.32A4,4,0,0,0,1617,395Zm45.74,5.62a.88.88,0,1,1,0,1.76.88.88,0,1,1,0-1.76ZM1661,398a.88.88,0,1,1,0,1.76.88.88,0,0,1,0-1.76Zm-1.76,2.64a.88.88,0,0,1,0,1.76.88.88,0,0,1,0-1.76Zm-1.75-2.64a.88.88,0,1,1-.88.88A.87.87,0,0,1,1657.49,398Zm-1.76,2.64a.88.88,0,1,1-.88.88A.88.88,0,0,1,1655.73,400.64ZM1654,398a.88.88,0,1,1-.88.88A.88.88,0,0,1,1654,398Zm-1.76,2.64a.88.88,0,1,1-.88.88A.88.88,0,0,1,1652.21,400.64Zm-1.76-2.64a.88.88,0,1,1-.88.88A.88.88,0,0,1,1650.45,398Zm-1.76,2.64a.88.88,0,1,1-.88.88A.88.88,0,0,1,1648.69,400.64Zm-1.76-2.64a.88.88,0,1,1-.88.88A.88.88,0,0,1,1646.93,398Zm-20.68-1.76a4,4,0,1,1-4,4A4,4,0,0,1,1626.25,396.24Z" transform="translate(-883.37 -347.62)"/><path id="_Compound_Path_10" data-name="&lt;Compound Path&gt;" class="cls-2" d="M1665.31,358.72H1621a4,4,0,0,0-4,4V373a3.93,3.93,0,0,0,.72,2.27h50.86a3.87,3.87,0,0,0,.73-2.27V362.73A4,4,0,0,0,1665.31,358.72Zm-39.14,12.15a3.93,3.93,0,1,1,3.92-3.93A3.93,3.93,0,0,1,1626.17,370.87Zm20.49-4.36a.88.88,0,1,1,.87-.88A.87.87,0,0,1,1646.66,366.51Zm1.74,2.61a.87.87,0,1,1,.88-.87A.87.87,0,0,1,1648.4,369.12Zm1.75-2.61a.88.88,0,1,1,.87-.88A.87.87,0,0,1,1650.15,366.51Zm1.74,2.61a.87.87,0,1,1,.87-.87A.87.87,0,0,1,1651.89,369.12Zm1.75-2.61a.88.88,0,1,1,.87-.88A.87.87,0,0,1,1653.64,366.51Zm1.74,2.61a.87.87,0,1,1,.87-.87A.87.87,0,0,1,1655.38,369.12Zm1.74-2.61a.88.88,0,1,1,.87-.88A.87.87,0,0,1,1657.12,366.51Zm1.75,2.61a.87.87,0,1,1,.87-.87A.88.88,0,0,1,1658.87,369.12Zm1.74-2.61a.88.88,0,1,1,.87-.88A.87.87,0,0,1,1660.61,366.51Zm1.74,2.61a.87.87,0,1,1,.88-.87A.87.87,0,0,1,1662.35,369.12Z" transform="translate(-883.37 -347.62)"/><path id="_Compound_Path_11" data-name="&lt;Compound Path&gt;" class="cls-2" d="M1617.75,426a4,4,0,0,0-.73,2.31v10.4a4.07,4.07,0,0,0,4.06,4.07h44.85a4.07,4.07,0,0,0,4.07-4.07v-10.4a4,4,0,0,0-.73-2.31Zm8.54,11.49a4,4,0,1,1,4-4A4,4,0,0,1,1626.29,437.53Zm20.75-4.42a.89.89,0,1,1,.89-.88A.89.89,0,0,1,1647,433.11Zm1.77,2.65a.89.89,0,1,1,.88-.88A.88.88,0,0,1,1648.81,435.76Zm1.77-2.65a.89.89,0,1,1,.88-.88A.89.89,0,0,1,1650.58,433.11Zm1.76,2.65a.89.89,0,1,1,.88-.88A.88.88,0,0,1,1652.34,435.76Zm1.77-2.65a.89.89,0,1,1,.88-.88A.89.89,0,0,1,1654.11,433.11Zm1.76,2.65a.89.89,0,1,1,.89-.88A.89.89,0,0,1,1655.87,435.76Zm1.77-2.65a.89.89,0,1,1,.88-.88A.88.88,0,0,1,1657.64,433.11Zm1.77,2.65a.89.89,0,1,1,.88-.88A.89.89,0,0,1,1659.41,435.76Zm1.76-2.65a.89.89,0,1,1,.89-.88A.89.89,0,0,1,1661.17,433.11Zm1.77,2.65a.89.89,0,1,1,.88-.88A.88.88,0,0,1,1662.94,435.76Z" transform="translate(-883.37 -347.62)"/><path id="_Path_2" data-name="&lt;Path&gt;" class="cls-1" d="M1663.2,469.2h-14.9V456.35a1.81,1.81,0,0,0-1.8-1.8h-9.13a1.81,1.81,0,0,0-1.8,1.8V469.2h-14.89a1.81,1.81,0,0,0-1.8,1.8v9.13a1.81,1.81,0,0,0,1.8,1.8h42.52a1.81,1.81,0,0,0,1.8-1.8V471A1.81,1.81,0,0,0,1663.2,469.2Z" transform="translate(-883.37 -347.62)"/><rect id="_Rectangle_" data-name="&lt;Rectangle&gt;" class="cls-2" x="1667.51" y="471.36" width="14.78" height="7.93" rx="2.5" ry="2.5" transform="translate(2466.44 603.03) rotate(180)"/><rect id="_Rectangle_2" data-name="&lt;Rectangle&gt;" class="cls-2" x="1601.93" y="471.36" width="14.78" height="7.93" rx="2.5" ry="2.5" transform="translate(2335.27 603.03) rotate(180)"/><rect id="_Rectangle_3" data-name="&lt;Rectangle&gt;" class="cls-2" x="733.51" y="29.72" width="5.46" height="12.83"/><rect id="_Rectangle_4" data-name="&lt;Rectangle&gt;" class="cls-2" x="733.51" y="62.86" width="5.46" height="12.83"/></g></svg>